<svg xmlns="http://www.w3.org/2000/svg" viewBox="0 0 1235.75 192.91"><defs><style>.cls-1{fill:#fff;}</style></defs><title>Fichier 2deforestation</title><g id="Calque_2" data-name="Calque 2"><g id="Calque_2-2" data-name="Calque 2"><path class="cls-1" d="M94.79,115.62q0,35-14.69,54.27T36.87,189.16H0V41.66H37.08q28.33,0,43,19.48T94.79,115.62Zm-25,0a97.05,97.05,0,0,0-2.4-22.92,50.12,50.12,0,0,0-6.77-16.25A29.33,29.33,0,0,0,50.2,66.77a27.41,27.41,0,0,0-13.12-3.23H25.21V167.28H37.08a27.29,27.29,0,0,0,13.12-3.23,29.33,29.33,0,0,0,10.42-9.68,50.09,50.09,0,0,0,6.77-16.15A94.64,94.64,0,0,0,69.79,115.62Z"/><path class="cls-1" d="M118.53,189.16V41.66h66V63.75H142.49v39.16h39v20.42h-39v43.54h44.16v22.29ZM158.53,30H140.82L159.57,0h21.67Z"/><path class="cls-1" d="M234.36,64.16v40.42h37.91v21.25h-37.7v63.33H209.36V41.66h66v22.5Z"/><path class="cls-1" d="M396,115.2A128.39,128.39,0,0,1,392.37,147a78,78,0,0,1-10.52,24.48,49.83,49.83,0,0,1-16.77,15.83,46.74,46.74,0,0,1-44.48,0,50.07,50.07,0,0,1-16.66-15.83A77.56,77.56,0,0,1,293.42,147a127.9,127.9,0,0,1-3.65-31.77,130.73,130.73,0,0,1,3.54-31.66,76.31,76.31,0,0,1,10.42-24.38A48.81,48.81,0,0,1,320.5,43.44a47.69,47.69,0,0,1,44.58,0,48.9,48.9,0,0,1,16.77,15.72,78.24,78.24,0,0,1,10.52,24.38A127.14,127.14,0,0,1,396,115.2Zm-25.83,0a120.05,120.05,0,0,0-1.77-21.14A66.53,66.53,0,0,0,363.2,77a32.36,32.36,0,0,0-8.54-11.36,18.11,18.11,0,0,0-11.77-4.16,18.41,18.41,0,0,0-12,4.16A32.36,32.36,0,0,0,322.37,77a64.34,64.34,0,0,0-5.1,17.08,126.36,126.36,0,0,0-1.67,21.14,126.48,126.48,0,0,0,1.67,21.15,65.93,65.93,0,0,0,5.1,17.18A32.06,32.06,0,0,0,330.91,165a19.29,19.29,0,0,0,24,0,32.06,32.06,0,0,0,8.54-11.46,66.3,66.3,0,0,0,5.11-17.18A127.58,127.58,0,0,0,370.18,115.2Z"/><path class="cls-1" d="M480.38,189.16l-22.91-62.92h-14v62.92H419.34V41.66h42.09a56.84,56.84,0,0,1,16.87,2.4,33.47,33.47,0,0,1,13.23,7.6,35.81,35.81,0,0,1,8.64,13.13,51.5,51.5,0,0,1,3.13,19,47.7,47.7,0,0,1-2.19,15.1A40.8,40.8,0,0,1,495.59,110a30.92,30.92,0,0,1-7.4,7.4,25.56,25.56,0,0,1-8,3.85l26.46,67.92ZM478.72,85a28.2,28.2,0,0,0-1.88-11A17.92,17.92,0,0,0,472,67.08a18.18,18.18,0,0,0-6.77-3.54,28.09,28.09,0,0,0-7.5-1H443.51v45.41h14.17q9.17,0,15.1-5.73T478.72,85Z"/><path class="cls-1" d="M526.21,189.16V41.66h66V63.75H550.17v39.16h39v20.42h-39v43.54h44.16v22.29Z"/><path class="cls-1" d="M675,70.2q-8.13-9.78-20.41-9.79a21.09,21.09,0,0,0-6.88,1.15,16.85,16.85,0,0,0-6,3.65,17.14,17.14,0,0,0-4.27,6.45A25.56,25.56,0,0,0,635.79,81q0,9.38,5.62,14.48a65.62,65.62,0,0,0,14.79,9.68q5.41,2.72,11,6.25A50.31,50.31,0,0,1,677.45,120a39.91,39.91,0,0,1,10.42,28.13,49.92,49.92,0,0,1-3.44,19.16,42.51,42.51,0,0,1-9.17,14.07A37.55,37.55,0,0,1,661.83,190a45.65,45.65,0,0,1-16.25,2.92,53.72,53.72,0,0,1-22.71-4.79A47.83,47.83,0,0,1,606.2,176l13.55-18.33a34.39,34.39,0,0,0,11.56,9.17,31,31,0,0,0,13.85,3.33,17.39,17.39,0,0,0,13.12-5.42q5.22-5.42,5.21-15.2,0-9.59-6.25-15.21A71.08,71.08,0,0,0,641.41,124a92.38,92.38,0,0,1-11.35-6.46,43.54,43.54,0,0,1-9.38-8.43,38.41,38.41,0,0,1-6.46-11.46,46.19,46.19,0,0,1-2.39-15.73q0-11.46,3.64-19.69a40.23,40.23,0,0,1,9.59-13.64,38.54,38.54,0,0,1,13.43-8,46,46,0,0,1,15.21-2.61,52.47,52.47,0,0,1,20.11,3.65A38.6,38.6,0,0,1,688.7,52.29Z"/><path class="cls-1" d="M746.2,62.91V189.16H721.61V62.91h-27.7V41.66h80V62.91Z"/><path class="cls-1" d="M848.69,189.16l-7.29-31.25H802.65l-7.5,31.25h-25l36.67-147.5h31.87l36,147.5Zm-26-123.95h-.83l-16,73.12h32.49Z"/><path class="cls-1" d="M923.27,62.91V189.16H898.69V62.91H871V41.66h80V62.91Z"/><path class="cls-1" d="M965.56,189.16V41.66h25v147.5Z"/><path class="cls-1" d="M1120.34,115.2A128.39,128.39,0,0,1,1116.7,147a78,78,0,0,1-10.52,24.48,49.92,49.92,0,0,1-16.77,15.83,46.74,46.74,0,0,1-44.48,0,50.2,50.2,0,0,1-16.67-15.83A78,78,0,0,1,1017.74,147a128.39,128.39,0,0,1-3.64-31.77,130.73,130.73,0,0,1,3.54-31.66,76.53,76.53,0,0,1,10.41-24.38,48.93,48.93,0,0,1,16.78-15.72,47.69,47.69,0,0,1,44.58,0,49,49,0,0,1,16.77,15.72,78.24,78.24,0,0,1,10.52,24.38A127.14,127.14,0,0,1,1120.34,115.2Zm-25.83,0a120.05,120.05,0,0,0-1.77-21.14A66.92,66.92,0,0,0,1087.53,77,32.36,32.36,0,0,0,1079,65.62a18.11,18.11,0,0,0-11.77-4.16,18.41,18.41,0,0,0-12,4.16A32.36,32.36,0,0,0,1046.7,77a64.34,64.34,0,0,0-5.1,17.08,126.36,126.36,0,0,0-1.67,21.14,126.48,126.48,0,0,0,1.67,21.15,65.93,65.93,0,0,0,5.1,17.18,32.06,32.06,0,0,0,8.54,11.46,19.29,19.29,0,0,0,24,0,32.06,32.06,0,0,0,8.54-11.46,65.93,65.93,0,0,0,5.1-17.18A127.55,127.55,0,0,0,1094.51,115.2Z"/><path class="cls-1" d="M1208.25,189.16,1166.38,85h-.63l.42,104.16h-22.5V41.66h28.54l41.46,104.79h.62l-.21-104.79h21.67v147.5Z"/></g></g></svg>