<svg xmlns="http://www.w3.org/2000/svg" viewBox="0 0 190.58 119.99"><defs><style>.cls-1{fill:#fff;}</style></defs><title>Fichier 1La</title><g id="Calque_2" data-name="Calque 2"><g id="Calque_2-2" data-name="Calque 2"><path class="cls-1" d="M118.69,60.19Q107,71.63,95.42,82.55T72.15,105.17a16.5,16.5,0,0,1-1.89,6.11A16,16,0,0,1,66.43,116a17.38,17.38,0,0,1-5.14,3,16.13,16.13,0,0,1-5.65,1q-1.95,0-2-1.56a1.61,1.61,0,0,1,.46-1.3,11.29,11.29,0,0,0,1-1,6,6,0,0,0,1-1.62,8.51,8.51,0,0,0,.46-3.25,20.59,20.59,0,0,0-1.76-8.9,15.81,15.81,0,0,0-4.74-6,19.34,19.34,0,0,0-7.15-3.32,36.55,36.55,0,0,0-8.84-1,45.45,45.45,0,0,0-6.05.45c-2.21.31-4.5.63-6.89,1s-4.8.67-7.28,1a57.71,57.71,0,0,1-7.21.46Q0,94.9,0,91.65a3,3,0,0,1,1.37-2.47,7.25,7.25,0,0,1,4.35-1q3.12,0,7,.26c2.56.17,5.08.39,7.54.65s4.84.48,7.09.65,4.07.26,5.46.26a12.91,12.91,0,0,0,8-3.25,50.75,50.75,0,0,0,8.07-8.25,112,112,0,0,0,7.73-11.19q3.77-6.16,6.83-12t5.33-10.66q2.27-4.81,3.44-7.15a31.64,31.64,0,0,1-7-2.15,22.23,22.23,0,0,1-6.12-3.89,19.54,19.54,0,0,1-4.29-5.6,15.37,15.37,0,0,1-1.62-7.08q0-7.41,4.36-11.38a14.67,14.67,0,0,1,10.2-4,17.72,17.72,0,0,1,4.48.52,16.09,16.09,0,0,1,3.06,1l-.39,1.3a24.51,24.51,0,0,0-3.51-1,19.88,19.88,0,0,0-3.64-.32q-6.11,0-9.56,4a14.54,14.54,0,0,0-3.44,9.75,13.83,13.83,0,0,0,1.56,6.5,17.85,17.85,0,0,0,4.09,5.2,24.05,24.05,0,0,0,5.79,3.7,24.87,24.87,0,0,0,6.5,2A61.37,61.37,0,0,1,82,22.1,66.8,66.8,0,0,1,110.37,2.86,49.68,49.68,0,0,1,126.88,0a33.49,33.49,0,0,1,7.28.78,20.92,20.92,0,0,1,6.37,2.53,13.67,13.67,0,0,1,4.55,4.49,12.58,12.58,0,0,1,1.69,6.76,14.52,14.52,0,0,1-2.47,8.25,25.12,25.12,0,0,1-6.56,6.57,46,46,0,0,1-9.36,4.94,77.71,77.71,0,0,1-10.8,3.38,97.33,97.33,0,0,1-11,1.95,85,85,0,0,1-9.88.65c-1.21,0-2.47,0-3.77-.13s-2.6-.22-3.9-.39Q84.37,49,80.15,55.64A110.57,110.57,0,0,1,72,67a63,63,0,0,1-7.87,8,61.89,61.89,0,0,1-8.19,5.78,99.91,99.91,0,0,1-9,4.69c-3.12,1.42-6.54,3-10.27,4.74v.26q4.81,0,10.46.19A57.46,57.46,0,0,1,57.92,92a25.32,25.32,0,0,1,9,3.84,12.32,12.32,0,0,1,5,7.6q3.12-3.37,8.52-8.65t11.7-11.24q6.3-6,12.93-12.15T117.39,59.8Zm14-49.92A9.3,9.3,0,0,0,130.65,4a7.17,7.17,0,0,0-5.72-2.4,15.78,15.78,0,0,0-7.28,1.88,33.53,33.53,0,0,0-7.08,5,61.06,61.06,0,0,0-6.63,7.08q-3.19,4-5.92,8.06t-4.87,8c-1.44,2.6-2.58,4.9-3.45,6.89a17,17,0,0,0,3,.26h3.64q11.06,0,18.13-3.38a34.37,34.37,0,0,0,11.12-7.93A26.39,26.39,0,0,0,131.17,18,27.05,27.05,0,0,0,132.73,10.27Z"/><path class="cls-1" d="M176.67,47.06c-1,1.39-2.19,3.16-3.71,5.33s-3.14,4.51-4.87,7-3.47,5.13-5.2,7.86-3.32,5.4-4.75,8a68.7,68.7,0,0,0-3.51,7.28,15.82,15.82,0,0,0-1.36,5.72c0,2.51,1,3.77,3,3.77q2.73,0,6.43-2.6a65,65,0,0,0,8.13-7,133.74,133.74,0,0,0,9.23-10.2q4.8-5.85,9.75-12.35l.78.52L180.44,73.38a123.78,123.78,0,0,1-9.82,11.18,53.44,53.44,0,0,1-9.75,7.87,18.83,18.83,0,0,1-9.94,3A13.1,13.1,0,0,1,144.17,94a9.13,9.13,0,0,1-3.45-3.57,12.06,12.06,0,0,1-1.3-4.49c-.13-1.56-.19-3-.19-4.16l-.39-.26c-1.39,1.65-2.88,3.29-4.49,4.94a37.2,37.2,0,0,1-5.26,4.49,29.27,29.27,0,0,1-6,3.25,17.91,17.91,0,0,1-6.63,1.23q-6.24,0-9.43-3.71t-3.18-11.89a27.4,27.4,0,0,1,2.86-11.77,37,37,0,0,1,8.12-11,44.24,44.24,0,0,1,12.55-8.25,38.7,38.7,0,0,1,16-3.25q5.07,0,7.73,2.53a11.82,11.82,0,0,1,3.45,6.31h.26l3.38-6.76ZM125.06,89.7q2.73,0,7-3.51a53.33,53.33,0,0,0,8.45-9,64.76,64.76,0,0,0,7.15-11.9,29.19,29.19,0,0,0,3-12.28,5.59,5.59,0,0,0-1.76-4.49,6,6,0,0,0-4-1.49,10.15,10.15,0,0,0-5.53,1.82A26.88,26.88,0,0,0,134,53.75a56,56,0,0,0-5.07,6.9,67.89,67.89,0,0,0-4.22,7.79,49.62,49.62,0,0,0-2.86,7.87,26.88,26.88,0,0,0-1,6.89,11.84,11.84,0,0,0,.84,4.35A3.35,3.35,0,0,0,125.06,89.7Z"/></g></g></svg>